# xmcd CD database file
#
# Track frame offsets:
#        150
#        14627
#        29248
#        44068
#        55929
#        70152
#        83945
#        93263
#        108091
#        123301
#        140550
#        152806
#        177770
#        194501
#        208517
#
# Disc length: 2901 seconds
#
# Revision: 0
# Processed by: cddbd v1.5.2PL0 Copyright (c) Steve Scherf et al.
# Submitted via: CUERipper 2.1.5
#
DISCID=d90b530f
DTITLE=Ike Jonson and The Roadhouse Rangers - Champagne Tates on My Beer Budget
DYEAR=2008
DGENRE=Country
TTITLE0=(She's Got) Champagne Taste on My Beer Budget
TTITLE1=Drivin' Nails In My Coffin
TTITLE2=Hadacol Boogie
TTITLE3=When the Red, Red Robin (Comes Bob, Bob Bobbin' Along)
TTITLE4=Hillbilly Band from Mars
TTITLE5=Deep in the Heart of Texas
TTITLE6=Down Yonder
TTITLE7=Wild Side of Life
TTITLE8=Who Drank My Beer (While I Was in the Rear)
TTITLE9=New San Antonio Rose
TTITLE10=Cry, Cry Darlin'
TTITLE11=Okie Boogie - Oklahoma Hills Medley
TTITLE12=South of the Border
TTITLE13=Tomorrow Never Comes
TTITLE14=Sorrow on the Rocks
EXTD=
EXTT0=
EXTT1=
EXTT2=
EXTT3=
EXTT4=
EXTT5=
EXTT6=
EXTT7=
EXTT8=
EXTT9=
EXTT10=
EXTT11=
EXTT12=
EXTT13=
EXTT14=
PLAYORDER=
